<svg width="95" height="94" viewBox="0 0 95 94" fill="none" xmlns="http://www.w3.org/2000/svg">
<g id="devicon:python">
<path id="Vector" d="M47.0529 8.9946C43.9524 9.00929 40.9929 9.27293 38.3873 9.73412C30.7131 11.0898 29.3207 13.9274 29.3207 19.1613V26.0725H47.4546V28.3762H22.5145C17.2446 28.3762 12.6298 31.5436 11.186 37.5713C9.52048 44.4781 9.44704 48.7889 11.186 56.0012C12.4749 61.3702 15.5534 65.1949 20.824 65.1949H27.0596V56.9096C27.0596 50.9237 32.2376 45.6443 38.388 45.6443H56.5014C61.5436 45.6443 65.568 41.4922 65.568 36.4294V19.162C65.568 14.2469 61.4217 10.5551 56.5014 9.73485C53.3847 9.21638 50.1527 8.98065 47.0529 8.9946ZM37.2461 14.5531C39.1187 14.5531 40.6492 16.1078 40.6492 18.0201C40.6492 19.9243 39.1195 21.4643 37.2461 21.4643C35.3661 21.4643 33.8437 19.9243 33.8437 18.0201C33.843 16.1078 35.3661 14.5531 37.2461 14.5531Z" fill="url(#paint0_linear_61_249)"/>
<path id="Vector_2" d="M67.8287 28.3762V36.4294C67.8287 42.6716 62.5354 47.926 56.5003 47.926H38.3869C33.4255 47.926 29.3203 52.1729 29.3203 57.1417V74.4105C29.3203 79.3242 33.5929 82.2155 38.3869 83.6247C44.1268 85.3116 49.6317 85.6171 56.5003 83.6247C61.0651 82.3021 65.5669 79.6422 65.5669 74.4105V67.4986H47.4542V65.1941H74.6349C79.9048 65.1941 81.87 61.5186 83.703 56.0005C85.5962 50.3201 85.5147 44.8571 83.703 37.5706C82.4002 32.3235 79.9129 28.3755 74.6349 28.3755L67.8287 28.3762ZM57.6408 72.1061C59.5215 72.1061 61.0438 73.646 61.0438 75.5517C61.0438 77.4626 59.5208 79.0173 57.6408 79.0173C55.7681 79.0173 54.2384 77.4626 54.2384 75.5517C54.2384 73.646 55.7681 72.1061 57.6408 72.1061Z" fill="url(#paint1_linear_61_249)"/>
<path id="Vector_3" opacity="0.444" d="M71.9615 87.8291C71.9615 90.431 61.081 92.5408 47.6603 92.5408C34.2389 92.5408 23.3584 90.431 23.3584 87.8291C23.3584 85.2264 34.2382 83.1166 47.6603 83.1166C61.081 83.1166 71.9615 85.2257 71.9615 87.8291Z" fill="url(#paint2_radial_61_249)"/>
</g>
<defs>
<linearGradient id="paint0_linear_61_249" x1="8.09129" y1="11.1556" x2="49.9167" y2="46.8241" gradientUnits="userSpaceOnUse">
<stop stop-color="#5A9FD4"/>
<stop offset="1" stop-color="#306998"/>
</linearGradient>
<linearGradient id="paint1_linear_61_249" x1="65.6527" y1="68.9962" x2="50.6534" y2="47.9622" gradientUnits="userSpaceOnUse">
<stop stop-color="#FFD43B"/>
<stop offset="1" stop-color="#FFE873"/>
</linearGradient>
<radialGradient id="paint2_radial_61_249" cx="0" cy="0" r="1" gradientUnits="userSpaceOnUse" gradientTransform="translate(47.5621 87.6941) rotate(-90) scale(4.71345 20.7196)">
<stop stop-color="#B8B8B8" stop-opacity="0.498"/>
<stop offset="1" stop-color="#7F7F7F" stop-opacity="0"/>
</radialGradient>
</defs>
</svg>
